<svg xmlns="http://www.w3.org/2000/svg" version="1.1" xmlns:xlink="http://www.w3.org/1999/xlink" xmlns:svgjs="http://svgjs.dev/svgjs" width="1440" height="1200" preserveAspectRatio="none" viewBox="0 0 1440 1200"><g mask="url(&quot;#SvgjsMask1010&quot;)" fill="none"><path d="M651.7 120.29 a214.87 214.87 0 1 0 429.74 0 a214.87 214.87 0 1 0 -429.74 0z" fill="rgba(142, 28, 28, 0.29)" class="triangle-float1"></path><path d="M740.3544851252608 535.9629515756765L837.611223630058 317.52074038391567 461.3195375900182 280.85673822260037z" fill="rgba(142, 28, 28, 0.29)" class="triangle-float1"></path><path d="M925.249,289.932C992.503,288.977,1040.176,230.349,1070.721,170.424C1098.117,116.677,1101.519,54.315,1072.23,1.576C1042.052,-52.764,987.404,-92.142,925.249,-91.519C864.026,-90.906,813.763,-48.628,783.28,4.47C752.947,57.308,745.311,120.107,772.441,174.659C802.892,235.889,856.872,290.903,925.249,289.932" fill="rgba(142, 28, 28, 0.29)" class="triangle-float2"></path><path d="M775.2077800411269 687.0243802346525L601.9165077943077 501.19224215679503 589.3756419632693 860.3156524814717z" fill="rgba(142, 28, 28, 0.29)" class="triangle-float2"></path><path d="M1347.3213838835006-70.5390720610965L1254.3721647672376 36.38677308611565 1461.2355420461874 122.34767918690414z" fill="rgba(142, 28, 28, 0.29)" class="triangle-float3"></path><path d="M835.26 1015.75 a343.98 343.98 0 1 0 687.96 0 a343.98 343.98 0 1 0 -687.96 0z" fill="rgba(142, 28, 28, 0.29)" class="triangle-float2"></path><path d="M34.77 806.2 a289.45 289.45 0 1 0 578.9 0 a289.45 289.45 0 1 0 -578.9 0z" fill="rgba(142, 28, 28, 0.29)" class="triangle-float1"></path><path d="M1019.1933165401922 163.0355466973889L1211.4493578839433-15.903863385941918 993.0945080988622-86.85165484909243z" fill="rgba(142, 28, 28, 0.29)" class="triangle-float2"></path><path d="M935.76,1570.936C1055.776,1571.009,1160.39,1489.068,1212.963,1381.179C1259.86,1284.937,1232.413,1173.222,1172.941,1084.2C1120.37,1005.508,1030.393,965.403,935.76,966.246C842.737,967.074,757.414,1010.975,705.783,1088.359C647.055,1176.381,613.617,1285.322,659.139,1380.844C710.726,1489.093,815.847,1570.863,935.76,1570.936" fill="rgba(142, 28, 28, 0.29)" class="triangle-float2"></path><path d="M453.5645458497671 718.712909534559L240.09308280578014 771.7212845799324 371.2241603119562 912.3421490093772z" fill="rgba(142, 28, 28, 0.29)" class="triangle-float3"></path><path d="M771.3165021290229 562.9332415846469L663.4738842086314 320.71475594134586 421.2553985653303 428.5573738617374 529.0980164857218 670.7758595050384z" fill="rgba(142, 28, 28, 0.29)" class="triangle-float3"></path><path d="M1000.122,972.153C1113.014,975.726,1232.709,944.763,1290.837,847.92C1350.32,748.819,1331.773,621.845,1268.407,525.181C1210.782,437.276,1105.191,401.555,1000.122,404.44C900.591,407.173,808.138,454.298,756.197,539.246C701.833,628.157,688.467,739.68,739.625,830.473C791.631,922.771,894.234,968.801,1000.122,972.153" fill="rgba(142, 28, 28, 0.29)" class="triangle-float2"></path></g><defs><mask id="SvgjsMask1010"><rect width="1440" height="1200" fill="#ffffff"></rect></mask><style>
                @keyframes float1 {
                    0%{transform: translate(0, 0)}
                    50%{transform: translate(-10px, 0)}
                    100%{transform: translate(0, 0)}
                }

                .triangle-float1 {
                    animation: float1 5s infinite;
                }

                @keyframes float2 {
                    0%{transform: translate(0, 0)}
                    50%{transform: translate(-5px, -5px)}
                    100%{transform: translate(0, 0)}
                }

                .triangle-float2 {
                    animation: float2 4s infinite;
                }

                @keyframes float3 {
                    0%{transform: translate(0, 0)}
                    50%{transform: translate(0, -10px)}
                    100%{transform: translate(0, 0)}
                }

                .triangle-float3 {
                    animation: float3 6s infinite;
                }
            </style></defs></svg>