<svg xmlns="http://www.w3.org/2000/svg" version="1.1" xmlns:xlink="http://www.w3.org/1999/xlink" xmlns:svgjs="http://svgjs.dev/svgjs" width="1440" height="1200" preserveAspectRatio="none" viewBox="0 0 1440 1200"><g mask="url(&quot;#SvgjsMask1044&quot;)" fill="none"><circle r="11.88" cx="1108.95" cy="467.14" filter="url(#SvgjsFilter1045)" fill="rgba(51, 143, 194, 0.58)"></circle><circle r="14.53" cx="961.24" cy="948.74" filter="url(#SvgjsFilter1045)" fill="rgba(51, 143, 194, 0.58)"></circle><circle r="11.925" cx="531.7249999999999" cy="823.805" filter="url(#SvgjsFilter1045)" fill="rgba(51, 143, 194, 0.58)"></circle><circle r="13.89" cx="760.3" cy="1102.8300000000002" filter="url(#SvgjsFilter1045)" fill="rgba(51, 143, 194, 0.58)"></circle><circle r="19.125" cx="1407.925" cy="962.255" filter="url(#SvgjsFilter1045)" fill="rgba(51, 143, 194, 0.58)"></circle><circle r="11.32" cx="669.23" cy="792.24" filter="url(#SvgjsFilter1045)" fill="rgba(51, 143, 194, 0.58)"></circle><circle r="14.56" cx="1449.21" cy="599.68" filter="url(#SvgjsFilter1045)" fill="rgba(51, 143, 194, 0.58)"></circle><circle r="12.735" cx="835.235" cy="336.52500000000003" filter="url(#SvgjsFilter1045)" fill="rgba(51, 143, 194, 0.58)"></circle><circle r="12.74" cx="604.76" cy="755.95" filter="url(#SvgjsFilter1045)" fill="rgba(51, 143, 194, 0.58)"></circle><circle r="13.785" cx="729.655" cy="120.335" filter="url(#SvgjsFilter1045)" fill="rgba(51, 143, 194, 0.58)"></circle><circle r="12.81" cx="1430.57" cy="361.21" filter="url(#SvgjsFilter1045)" fill="rgba(51, 143, 194, 0.58)"></circle><circle r="11.92" cx="757.15" cy="983.5799999999999" filter="url(#SvgjsFilter1045)" fill="rgba(51, 143, 194, 0.58)"></circle><circle r="14.585" cx="1308.455" cy="841.315" filter="url(#SvgjsFilter1045)" fill="rgba(51, 143, 194, 0.58)"></circle><circle r="11.09" cx="158.51" cy="408.08" filter="url(#SvgjsFilter1045)" fill="rgba(51, 143, 194, 0.58)"></circle><circle r="15.39" cx="258.5" cy="1144.8500000000001" filter="url(#SvgjsFilter1045)" fill="rgba(51, 143, 194, 0.58)"></circle><circle r="11.53" cx="955.02" cy="1199.6499999999999" filter="url(#SvgjsFilter1045)" fill="rgba(51, 143, 194, 0.58)"></circle><circle r="15.455" cx="58.805" cy="482.175" filter="url(#SvgjsFilter1045)" fill="rgba(51, 143, 194, 0.58)"></circle><circle r="17.83" cx="97.55" cy="154.43" filter="url(#SvgjsFilter1045)" fill="rgba(51, 143, 194, 0.58)"></circle><circle r="19.055" cx="1377.2250000000001" cy="1060.555" filter="url(#SvgjsFilter1045)" fill="rgba(51, 143, 194, 0.58)"></circle><circle r="15.125" cx="1217.335" cy="217.765" filter="url(#SvgjsFilter1045)" fill="rgba(51, 143, 194, 0.58)"></circle><path d="M1427 997.1L1386.5 1028.3 1368.1 1025.5 1381.8 1015C1383.5 1014.3 1383.4 1012.3 1382.7 1010.5 1381.6 1009.5 1379.3 1009.1 1378.4 1010.2L1359.3 1024.2 1341.1 1022 1352.5 1007.7 1376.2 1004.8C1376.2 1004.8 1376.8 1004.6 1376.8 1004.6 1378 1004.1 1378.7 1002.4 1378.8 1001 1378.1 999.2 1377 998.3 1375 998.4L1357.9 1000.6 1369.3 986.2 1419.7 979.4C1419.7 979.4 1420.5 979.7 1420.5 979.7 1421.7 979.2 1422.4 977.5 1422.5 976.1 1422.4 974.1 1420.5 972.8 1418.7 973.5L1374.7 979.2 1388 961.2 1407.8 958.7C1407.8 958.7 1407.8 958.7 1408.3 958.4 1409.5 957.9 1410.5 956.9 1410.6 955.4 1409.8 953.7 1408.5 952.1 1406.5 952.3L1393.4 954.2 1403.3 941.1C1404.8 939.8 1404.1 938 1403 937.1 1401.7 935.5 1399.7 935.7 1398.4 937.6L1388.3 950 1387.2 937.3C1386.5 935.6 1385.2 934 1383.4 934.8 1381.4 934.9 1380.4 936 1380.6 938L1383.1 957.7 1369.5 975.1 1363.6 930.4C1363.7 929 1361.8 927.7 1359.8 927.8 1358.6 928.3 1357.1 929.7 1357.2 931.7L1364.1 982.1 1352.7 996.5 1350.5 979.4C1350.4 977.4 1348.7 976.7 1346.7 976.8 1345.3 976.7 1344 978.6 1343.9 980.1L1347.3 1003.6 1336.2 1018.5 1329.1 1001.3 1338.2 979.6C1338.9 978 1338.1 976.2 1336.5 975.5 1335.4 974.5 1333 975.5 1332.3 977.2L1325.7 993.1 1318.7 975.9 1338.8 928.9C1339.5 927.2 1338.7 925.4 1337.1 924.7 1335.4 924 1333.6 924.8 1332.9 926.4L1315.2 967.6 1307 947.5 1314.7 929.1C1315.4 927.4 1314.6 925.7 1313 925 1311.3 924.3 1309.5 925 1308.8 926.7L1303.3 938.6 1297.3 923.8C1296.5 922 1294.9 921.3 1293.1 922 1291.3 922.8 1290.6 924.4 1291.3 926.2L1297.4 941 1285.7 936.1C1284.1 935.4 1282.3 936.2 1281.6 937.8S1281.6 941.3 1283.3 942L1300.8 949.3 1309.3 970 1268.4 952.9C1266.7 952.2 1265 953 1264.3 954.6 1263.6 956.3 1264.3 958.1 1266 958.8L1312.7 978.3 1319.8 995.5 1303.9 988.9C1302.2 988.2 1300.5 988.9 1299.8 990.6 1299.1 992.2 1299.8 994 1301.5 994.7L1323.2 1003.8 1330 1020.4 1312.4 1017.9 1297.7 999C1296.6 998.1 1294.4 997.6 1293.4 998.7 1291.9 1000 1291.8 1001.5 1292.5 1003.2L1303 1016.9 1285.4 1014.5 1254.2 974C1252.9 972.5 1251.5 972.3 1249.7 973.1 1248.2 974.4 1248.3 976.4 1248.8 977.6L1276 1013.5 1253.8 1010.1 1242.1 994.9C1241.3 993.1 1239.3 993.3 1237.5 994 1236.6 995.1 1236.1 997.3 1237.5 998.9L1245 1008.9 1229.1 1007.1C1227.4 1006.4 1225.9 1007.8 1225.4 1010 1225.3 1011.5 1226.6 1013 1228.1 1013.1L1244.3 1015.4 1233.6 1023.3C1232.1 1024.6 1232.2 1026.6 1233.3 1027.5 1234 1029.3 1235.5 1029.4 1236.7 1028.9 1237.3 1028.7 1237.3 1028.7 1237.8 1028.5L1253.1 1016.7 1275.2 1020 1239.9 1047C1238.1 1047.7 1238.3 1049.7 1239 1051.5 1240.1 1052.4 1241.5 1052.5 1242.7 1052.1 1243.3 1051.8 1243.3 1051.8 1243.3 1051.8L1284.6 1021 1302.2 1023.5 1288.5 1033.9C1287 1035.2 1286.9 1036.7 1287.6 1038.5 1288.7 1039.4 1290.4 1040.1 1291.5 1039.6 1292.1 1039.4 1292.1 1039.4 1292.7 1039.1L1311.6 1024.4 1329.2 1026.9 1318.4 1041 1294.9 1044.4C1292.9 1044.6 1291.6 1046.5 1291.5 1047.9 1292.2 1049.7 1293.6 1051.2 1295.3 1050.5L1312.4 1048.3 1301.9 1063 1250.6 1069.6C1249.2 1069.5 1247.9 1071.4 1247.8 1072.8 1248.5 1074.6 1249.8 1076.1 1251.8 1076L1295.9 1070.3 1282.2 1087.7 1263.1 1090C1261.1 1090.2 1259.8 1092.1 1260.6 1093.8 1260.4 1095.3 1261.8 1096.8 1263.8 1096.7L1276.8 1094.8 1267 1107.8C1266 1108.9 1266.2 1110.9 1267.5 1112.4 1268.3 1112.8 1269.8 1112.9 1270.9 1112.4 1270.9 1112.4 1271.5 1112.2 1272.1 1111.9L1282 1098.9 1283.9 1111.9C1283.8 1113.4 1285.7 1114.7 1287.1 1114.8 1287.7 1114.5 1287.7 1114.5 1287.7 1114.5 1289.5 1113.8 1290.2 1112.1 1289.7 1110.9L1287.4 1091.8 1300.8 1073.9 1306.7 1118.5C1307.4 1120.3 1308.5 1121.2 1310.5 1121.1 1310.5 1121.1 1311.1 1120.8 1311.1 1120.8 1312.3 1120.3 1313.2 1119.3 1313.1 1117.3L1306.8 1066.6 1317.6 1052.4 1319.8 1069.5C1320.5 1071.3 1321.8 1072.8 1323.6 1072.1 1323.8 1072.7 1324.4 1072.5 1324.4 1072.5 1325.6 1072 1326.3 1070.3 1326.4 1068.9L1323 1045.4 1334.4 1031 1341.2 1047.6 1332.1 1069.3C1331.4 1071 1332.4 1073.3 1334.1 1074 1335.5 1074.1 1337.3 1073.4 1338.2 1072.3L1344.6 1055.9 1351.6 1073 1332.1 1119.8C1331.4 1121.5 1332.1 1123.3 1333.8 1124 1335.5 1124.7 1337.3 1123.9 1338 1122.3L1355 1081.3 1363.6 1102 1356.2 1119.6C1355.5 1121.3 1356.3 1123 1357.9 1123.7S1361.4 1123.7 1362.1 1122L1367 1110.3 1373 1125.1C1373.8 1126.9 1375.4 1127.6 1377.2 1126.9 1379 1126.2 1379.7 1124.5 1379 1122.7L1372.9 1107.9 1385.2 1112.5C1386 1112.9 1386.8 1113.2 1387.4 1113 1388 1112.8 1389 1111.7 1389.3 1110.8 1390 1109.2 1389.3 1107.4 1387.6 1106.7L1369.5 1099.6 1361 1078.9 1402.5 1095.7C1403.3 1096.1 1404.1 1096.4 1404.7 1096.2 1405.3 1096 1406.3 1094.9 1406.6 1094 1407.3 1092.4 1406.6 1090.6 1404.9 1089.9L1357.6 1070.6 1350.5 1053.4 1366.6 1060.7C1367.5 1061 1368.6 1060.5 1369.2 1060.3 1369.8 1060 1370.4 1059.8 1370.8 1059 1371.5 1057.3 1370.5 1054.9 1369.1 1054.8L1347.1 1045.2 1340.3 1028.6 1358.5 1030.8 1372.6 1049.9C1373.7 1050.8 1375.3 1051.5 1376.5 1051.1 1377.1 1050.8 1377.1 1050.8 1376.9 1050.2 1378.6 1049.5 1379.1 1047.2 1377.8 1045.7L1367.3 1032 1385.5 1034.2 1416.3 1075.5C1417.4 1076.5 1418.8 1076.6 1420 1076.1 1420.6 1075.9 1420.6 1075.9 1420.6 1075.9 1422.1 1074.5 1422.8 1072.9 1421.5 1071.3L1394.3 1035.4 1416.5 1038.8 1428.2 1054C1429.6 1055.6 1431 1055.7 1432.2 1055.2 1432.2 1055.2 1432.8 1054.9 1432.8 1054.9 1434.3 1053.6 1434.2 1051.6 1433.7 1050.4L1425.3 1040 1441.4 1042.4C1442 1042.1 1442.6 1041.9 1443.2 1041.7 1443.8 1041.4 1444.8 1040.3 1445.1 1039.5 1445 1037.5 1444.2 1035.7 1442.2 1035.8L1426 1033.5 1436.7 1025.7C1438.2 1024.3 1438.1 1022.3 1437.6 1021.1 1436.2 1019.6 1434.2 1019.7 1432.4 1020.5L1417.2 1032.3 1395.3 1029.5 1430.6 1002.5C1432.2 1001.2 1432.6 999 1431.5 998 1430.2 996.5 1428.5 995.8 1427 997.1Z" fill="rgba(51, 143, 194, 0.58)"></path><path d="M904.2 805.9L936.9 766.6 955.5 765.4 944.4 778.6C942.9 779.7 943.4 781.6 944.5 783.2 945.8 783.9 948.1 783.8 948.8 782.5L964.4 764.6 982.6 762.8 974.6 779.3 952.1 787.3C952.1 787.3 951.6 787.6 951.6 787.6 950.5 788.4 950.2 790.2 950.4 791.6 951.5 793.1 952.7 793.8 954.7 793.3L970.9 787.4 962.9 803.9 915.2 821.6C915.2 821.6 914.3 821.5 914.3 821.5 913.2 822.2 912.9 824 913.1 825.4 913.7 827.3 915.8 828.2 917.4 827.1L959.2 812 950 832.4 931.4 839.2C931.4 839.2 931.4 839.2 930.8 839.6 929.8 840.3 929.1 841.6 929.3 843 930.4 844.6 932 845.8 934 845.2L946.3 840.5 939.5 855.4C938.3 857 939.4 858.6 940.7 859.2 942.3 860.5 944.2 859.9 945.1 857.7L952.2 843.4 956 855.5C957.1 857.1 958.7 858.3 960.3 857.2 962.3 856.7 962.9 855.4 962.4 853.5L955.6 834.8 965.1 814.9 980.6 857.1C980.8 858.6 982.9 859.4 984.9 858.8 985.9 858.1 987.1 856.5 986.5 854.5L968.8 806.8 976.8 790.3 982.7 806.5C983.2 808.4 985 808.8 987 808.2 988.4 808 989.2 805.8 989 804.4L980.6 782.2 988.2 765.2 998.8 780.4 994.7 803.6C994.4 805.4 995.5 806.9 997.2 807.3 998.5 807.9 1000.6 806.5 1000.9 804.7L1003.9 787.8 1014.6 803 1005.2 853.2C1004.8 855 1005.9 856.6 1007.7 856.9 1009.5 857.2 1011.1 856.1 1011.4 854.4L1019.7 810.3 1032.1 828.2 1028.7 847.8C1028.3 849.6 1029.4 851.1 1031.2 851.4 1033 851.8 1034.6 850.7 1034.9 848.9L1037.6 836 1046.8 849.2C1047.9 850.7 1049.7 851 1051.2 849.9 1052.8 848.8 1053.1 847.1 1052 845.5L1042.9 832.4 1055.4 834.6C1057.1 834.9 1058.7 833.8 1059 832S1058.2 828.7 1056.5 828.4L1037.8 825 1024.9 806.7 1068.6 814.4C1070.4 814.7 1072 813.6 1072.3 811.9 1072.6 810.1 1071.5 808.5 1069.7 808.2L1019.8 799.3 1009.2 784.1 1026.1 787.1C1027.9 787.4 1029.5 786.3 1029.8 784.5 1030.1 782.8 1029 781.2 1027.2 780.9L1004 776.7 993.8 762.1 1011.5 760.6 1029.9 775.8C1031.2 776.5 1033.5 776.5 1034.2 775.2 1035.4 773.6 1035.2 772.2 1034.1 770.6L1020.9 759.5 1038.6 758.1 1077.9 790.8C1079.5 792 1080.9 791.8 1082.5 790.7 1083.7 789.1 1083.1 787.1 1082.4 786.1L1048 757 1070.3 755.4 1085.2 767.7C1086.3 769.3 1088.2 768.7 1089.8 767.6 1090.5 766.4 1090.4 764.1 1088.8 762.9L1079.2 754.7 1095.1 753C1096.9 753.3 1098.1 751.6 1098.1 749.3 1097.9 747.9 1096.3 746.7 1094.8 746.9L1078.5 748.2 1087.2 738.2C1088.4 736.6 1087.8 734.6 1086.6 734 1085.5 732.4 1084.1 732.6 1083 733.3 1082.5 733.7 1082.5 733.7 1082 734.1L1069.7 748.9 1047.3 750.4 1075.9 716.4C1077.5 715.3 1076.9 713.4 1075.8 711.8 1074.5 711.1 1073.1 711.3 1072.1 712.1 1071.6 712.4 1071.6 712.4 1071.6 712.4L1037.9 751.5 1020.2 753 1031.3 739.8C1032.5 738.1 1032.3 736.7 1031.2 735.1 1029.9 734.5 1028.2 734.1 1027.1 734.9 1026.6 735.2 1026.6 735.2 1026.1 735.6L1010.8 754.1 993.1 755.5 1000.6 739.4 1022.8 730.9C1024.7 730.3 1025.6 728.2 1025.3 726.8 1024.2 725.2 1022.6 724 1021 725.1L1004.8 730.9 1011.9 714.3 1060.6 696.7C1062 696.5 1062.8 694.3 1062.6 692.9 1061.5 691.4 1059.9 690.1 1057.9 690.7L1016.2 705.8 1025.7 685.9 1043.9 679.5C1045.8 678.9 1046.6 676.8 1045.5 675.2 1045.3 673.8 1043.7 672.6 1041.8 673.1L1029.4 677.8 1036.2 663C1036.9 661.7 1036.3 659.8 1034.7 658.6 1033.8 658.4 1032.4 658.6 1031.4 659.3 1031.4 659.3 1030.8 659.7 1030.3 660.1L1023.5 674.9 1018.8 662.6C1018.6 661.2 1016.5 660.4 1015 660.6 1014.5 660.9 1014.5 660.9 1014.5 660.9 1012.9 662 1012.6 663.8 1013.4 664.9L1019.8 683 1010.6 703.5 995.2 661.2C994.1 659.6 992.8 658.9 990.9 659.5 990.9 659.5 990.4 659.9 990.4 659.9 989.3 660.6 988.6 661.9 989.2 663.8L1006.4 711.9 998.9 728 993.1 711.8C992 710.2 990.3 709 988.8 710.1 988.4 709.6 987.9 710 987.9 710 986.8 710.7 986.5 712.5 986.7 713.9L995.2 736.1 987.2 752.6 976.9 737.9 981.1 714.7C981.4 713 979.9 710.9 978.1 710.5 976.7 710.8 975.1 711.9 974.5 713.1L971.8 730.6 961.2 715.3 970.1 665.4C970.4 663.7 969.3 662.1 967.5 661.8 965.7 661.5 964.1 662.6 963.8 664.3L956.1 708 943.2 689.6 946.6 670.9C946.9 669.1 945.8 667.6 944 667.2S940.6 668 940.3 669.8L938.1 682.3 928.9 669.2C927.8 667.6 926.1 667.3 924.5 668.4 922.9 669.5 922.6 671.3 923.7 672.8L932.9 686 919.9 684.1C919 683.9 918.1 683.8 917.5 684.1 917 684.5 916.3 685.8 916.2 686.7 915.9 688.4 917 690 918.7 690.3L938 693.3 950.8 711.7 906.6 704.3C905.7 704.1 904.8 704 904.3 704.3 903.8 704.7 903.1 705.9 902.9 706.8 902.6 708.6 903.7 710.2 905.5 710.5L955.9 719 966.6 734.2 949.3 730.7C948.4 730.5 947.3 731.3 946.8 731.6 946.3 732 945.7 732.4 945.6 733.3 945.3 735 946.7 737.1 948.2 736.9L971.7 741.6 981.9 756.3 963.7 758.1 945.8 742.5C944.5 741.8 942.7 741.5 941.7 742.2 941.2 742.6 941.2 742.6 941.5 743.1 940 744.2 940 746.5 941.6 747.7L954.8 758.8 936.6 760.6 897.5 727C896.3 726.3 894.8 726.5 893.8 727.3 893.3 727.6 893.3 727.6 893.3 727.6 892.1 729.3 891.7 731 893.4 732.3L927.7 761.3 905.4 762.9 890.6 750.6C888.9 749.4 887.5 749.6 886.5 750.3 886.5 750.3 886 750.7 886 750.7 884.7 752.3 885.3 754.3 886.1 755.3L896.5 763.6 880.2 764.8C879.7 765.2 879.2 765.6 878.6 765.9 878.1 766.3 877.4 767.6 877.3 768.5 877.9 770.4 879 772 880.9 771.4L897.2 770.2 888.5 780.1C887.3 781.7 887.9 783.7 888.6 784.7 890.3 785.9 892.2 785.4 893.8 784.3L906.1 769.4 928 767.4 899.5 801.4C898.3 803 898.3 805.3 899.6 806 901.2 807.2 903 807.5 904.2 805.9Z" fill="rgba(51, 143, 194, 0.58)"></path><path d="M761.8 1019.4L800.8 1052.4 801.9 1071.1 788.8 1059.9C787.8 1058.3 785.8 1058.8 784.2 1059.9 783.5 1061.2 783.6 1063.5 784.8 1064.2L802.6 1079.9 804.3 1098.2 787.8 1090.1 780.1 1067.4C780.1 1067.4 779.7 1066.9 779.7 1066.9 779 1065.9 777.2 1065.5 775.8 1065.7 774.2 1066.8 773.5 1068.1 774.1 1070L779.8 1086.3 763.3 1078.1 746 1030.3C746 1030.3 746.2 1029.4 746.2 1029.4 745.5 1028.3 743.7 1028 742.3 1028.2 740.3 1028.7 739.5 1030.9 740.5 1032.5L755.3 1074.3 734.9 1065 728.3 1046.3C728.3 1046.3 728.3 1046.3 727.9 1045.8 727.2 1044.7 726 1044 724.5 1044.2 723 1045.3 721.7 1046.9 722.3 1048.9L726.9 1061.2 712.1 1054.3C710.5 1053.1 708.9 1054.2 708.2 1055.4 707 1057.1 707.5 1059 709.7 1059.9L724 1067.1 711.8 1070.8C710.2 1071.9 709 1073.5 710 1075.1 710.6 1077.1 711.9 1077.8 713.8 1077.2L732.5 1070.6 752.4 1080.2 710 1095.4C708.5 1095.6 707.7 1097.7 708.2 1099.6 709 1100.7 710.6 1101.9 712.5 1101.4L760.4 1084 776.8 1092.2 760.6 1097.9C758.6 1098.4 758.3 1100.2 758.9 1102.2 759.1 1103.6 761.2 1104.4 762.6 1104.2L784.9 1096 801.8 1103.7 786.5 1114.2 763.4 1109.9C761.6 1109.6 760 1110.7 759.7 1112.4 759 1113.7 760.5 1115.8 762.2 1116.1L779.2 1119.3 763.8 1129.8 713.7 1120C711.9 1119.6 710.3 1120.7 710 1122.5 709.6 1124.3 710.7 1125.9 712.5 1126.2L756.5 1134.9 738.5 1147.2 718.9 1143.5C717.2 1143.2 715.6 1144.3 715.2 1146.1 714.9 1147.8 716 1149.4 717.8 1149.7L730.6 1152.6 717.4 1161.6C715.8 1162.7 715.5 1164.5 716.6 1166.1 717.7 1167.7 719.4 1168 721 1166.9L734.2 1157.9 731.9 1170.3C731.6 1172.1 732.7 1173.7 734.4 1174S737.8 1173.3 738.1 1171.5L741.6 1152.8 760.1 1140.1 752 1183.7C751.6 1185.5 752.7 1187.1 754.5 1187.4 756.3 1187.8 757.9 1186.7 758.2 1184.9L767.5 1135.1 782.8 1124.6 779.6 1141.5C779.3 1143.3 780.4 1144.8 782.2 1145.2 783.9 1145.5 785.5 1144.4 785.9 1142.6L790.2 1119.5 804.9 1109.4 806.2 1127.1 790.9 1145.4C790.2 1146.7 790.2 1149 791.4 1149.7 793.1 1150.9 794.5 1150.7 796.1 1149.6L807.3 1136.5 808.6 1154.2 775.5 1193.2C774.3 1194.8 774.5 1196.2 775.6 1197.8 777.2 1199 779.1 1198.5 780.2 1197.7L809.6 1163.6 810.9 1186 798.5 1200.7C796.9 1201.8 797.5 1203.7 798.6 1205.3 799.8 1206 802.1 1206 803.4 1204.4L811.6 1194.8 813.2 1210.8C812.9 1212.6 814.5 1213.8 816.8 1213.8 818.2 1213.6 819.4 1212 819.2 1210.5L818.1 1194.2 828 1203C829.6 1204.2 831.6 1203.6 832.3 1202.4 833.8 1201.3 833.7 1199.9 832.9 1198.8 832.6 1198.3 832.6 1198.3 832.2 1197.8L817.5 1185.4 816.1 1163 849.9 1191.8C851 1193.4 852.9 1192.9 854.5 1191.8 855.2 1190.5 855 1189.1 854.3 1188.1 853.9 1187.5 853.9 1187.5 853.9 1187.5L815.1 1153.6 813.8 1135.9 826.9 1147.1C828.5 1148.3 829.9 1148.1 831.5 1147 832.2 1145.7 832.6 1144 831.8 1142.9 831.5 1142.4 831.5 1142.4 831.1 1141.9L812.8 1126.5 811.5 1108.7 827.6 1116.3 835.9 1138.6C836.4 1140.5 838.6 1141.4 840 1141.2 841.6 1140.1 842.8 1138.5 841.7 1136.9L836 1120.7 852.6 1127.9 869.7 1176.7C869.9 1178.1 872.1 1178.9 873.5 1178.8 875.1 1177.7 876.3 1176.1 875.7 1174.1L861 1132.2 880.8 1141.9 887.1 1160.1C887.7 1162.1 889.8 1162.9 891.4 1161.8 892.8 1161.6 894 1160 893.5 1158.1L888.9 1145.7 903.7 1152.6C904.9 1153.3 906.9 1152.7 908.1 1151.1 908.3 1150.2 908.1 1148.8 907.3 1147.8 907.3 1147.8 907 1147.2 906.6 1146.7L891.8 1139.8 904.2 1135.2C905.6 1135 906.4 1132.9 906.2 1131.5 905.9 1130.9 905.9 1130.9 905.9 1130.9 904.8 1129.3 903 1129 902 1129.7L883.8 1136 863.4 1126.7 905.8 1111.6C907.4 1110.5 908.1 1109.2 907.5 1107.3 907.5 1107.3 907.2 1106.8 907.2 1106.8 906.4 1105.7 905.2 1105 903.2 1105.6L855 1122.4 838.9 1114.8 855.2 1109.1C856.8 1108 858 1106.4 856.9 1104.8 857.4 1104.4 857.1 1103.9 857.1 1103.9 856.3 1102.8 854.6 1102.5 853.1 1102.7L830.9 1111 814.4 1102.8 829.2 1092.7 852.3 1097C854.1 1097.3 856.2 1095.9 856.6 1094.1 856.4 1092.7 855.3 1091.1 854 1090.4L836.6 1087.6 851.9 1077.1 901.7 1086.4C903.5 1086.8 905.1 1085.7 905.4 1083.9 905.8 1082.1 904.7 1080.5 902.9 1080.2L859.3 1072.1 877.8 1059.4 896.5 1062.9C898.2 1063.2 899.8 1062.1 900.1 1060.3S899.4 1057 897.6 1056.7L885.2 1054.3 898.4 1045.3C899.9 1044.2 900.3 1042.4 899.2 1040.8 898.1 1039.2 896.3 1038.9 894.7 1040L881.5 1049.1 883.5 1036.1C883.7 1035.2 883.8 1034.3 883.5 1033.8 883.1 1033.2 881.8 1032.5 881 1032.4 879.2 1032 877.6 1033.1 877.3 1034.9L874.1 1054.1 855.7 1066.8 863.4 1022.7C863.6 1021.8 863.8 1020.9 863.4 1020.4 863 1019.8 861.8 1019.1 860.9 1019 859.1 1018.6 857.5 1019.7 857.2 1021.5L848.3 1071.9 833 1082.4 836.7 1065.1C836.8 1064.2 836.1 1063.1 835.7 1062.6 835.4 1062.1 835 1061.6 834.1 1061.4 832.3 1061.1 830.2 1062.5 830.4 1063.9L825.6 1087.4 810.8 1097.6 809.2 1079.3 824.9 1061.5C825.6 1060.3 825.9 1058.5 825.2 1057.4 824.8 1056.9 824.8 1056.9 824.3 1057.3 823.2 1055.7 820.9 1055.7 819.7 1057.3L808.5 1070.4 806.8 1052.2 840.8 1013.4C841.5 1012.1 841.3 1010.7 840.5 1009.7 840.2 1009.1 840.2 1009.1 840.2 1009.1 838.6 1007.9 836.8 1007.6 835.6 1009.2L806.2 1043.3 804.8 1021 817.2 1006.2C818.5 1004.6 818.3 1003.2 817.5 1002.2 817.5 1002.2 817.2 1001.6 817.2 1001.6 815.6 1000.4 813.6 1001 812.6 1001.7L804.2 1012.1 803.1 995.8C802.7 995.2 802.4 994.7 802 994.2 801.6 993.7 800.4 993 799.5 992.8 797.5 993.4 796 994.4 796.5 996.4L797.6 1012.7 787.7 1004C786.1 1002.7 784.2 1003.3 783.1 1004 781.9 1005.6 782.5 1007.6 783.5 1009.2L798.3 1021.6 800.2 1043.6 766.4 1014.7C764.8 1013.5 762.5 1013.5 761.8 1014.8 760.6 1016.4 760.2 1018.2 761.8 1019.4Z" fill="rgba(51, 143, 194, 0.58)"></path><path d="M332.2 693.8L317.8 711 312.7 698.5C312.2 697.2 310.4 696.3 308.4 696.6 307 697.7 306 699.5 307.1 700.9L313.1 716.7 302.5 730.7 290.1 697.6C289.1 696.2 287.3 695.3 285.9 695.7 283.8 696.7 282.9 698.5 283.9 699.9L297.7 736.4 280.9 757.1 273.2 727.4 256.9 753.4 247.1 728.5 271.3 698C271.9 698.1 272 697.4 272.1 696.8 272.3 695.5 271.9 694.2 270.7 693.3 269.5 692.5 267.6 692.9 266.1 693.9L244.3 721.6 238.4 705.2 248.9 691.9C249.6 691.4 249.7 690.7 249.8 690.1 249.9 689.5 249.5 688.1 248.3 687.3 247.2 686.5 245.2 686.8 244.3 688L235.6 698.3 227.2 677.5C226.8 675.5 224.9 675.2 223 675.6 221.6 676 220.7 677.8 221.6 679.9L229.4 700.5 216.2 698.5C214.3 698.2 212.7 699.9 212.5 701.2 212.2 703.1 213.3 704.5 215.2 704.8L232.3 707.5 238.1 723.9 204 718.6C202.1 718.3 200.6 719.4 200.3 721.3 200.1 722.6 201.1 724.7 203 724.9L240.9 730.8 250.7 755.7 221.5 747.9 235.4 774.7 208.9 770.5 195 734.7C194 732.6 192.1 732.3 190.8 732.8 189.4 733.2 188.5 735 188.8 737L201.9 769.5 184.9 766.8 178.3 750.9C177.9 748.9 176.1 748 174 749 172.7 749.4 171.7 751.2 172.7 753.3L177.3 765.6 155.1 762.2C153.2 761.9 151.8 763 151.5 764.9S152.2 768.2 154.1 768.5L176.3 772 168.2 782.4C166.6 784.1 167 786.1 168.1 786.9 169.8 788.5 171.8 788.1 172.8 786.3L183.9 773.1 200.9 775.8 178.6 802.8C177.7 804.6 178 806.6 179.2 807.4 180.9 809 182.9 808.6 183.8 806.8L207.9 776.9 234.5 781 213 802.3 243.2 803.7 226.4 824.4 188.5 818.5C186.6 818.3 185 820 184.8 821.2 184.5 823.1 185.6 824.6 187.5 824.9L222.3 830.3 211.1 844.1 194 841.4C192.1 841.1 190.7 842.2 190.4 844.1 190.2 845.4 191.1 847.5 193 847.7L206.3 849.8 192.6 867.1C191.1 868.8 191.4 870.8 193.2 871.7 194.4 872.6 196.3 872.9 197.2 871.1L211.5 853.9 216.7 866.3C217.1 867.7 218.9 868.6 220.3 868.2 221.7 867.7 222.5 866.6 222.6 865.9 222.7 865.3 222.8 864.7 222.3 863.9L216.3 848.1 226.9 834.2 239.2 867.2C240.3 868.7 242.1 869.6 243.5 869.2 244.8 868.7 245.7 867.6 245.9 866.3 246 865.7 246 865.7 245.4 864.9L231.6 828.5 248.4 807.8 256.2 837.5 272.5 811.5 282.2 836.3 258.1 866.9C257.2 868.1 256.9 870 258.6 871.5 259.8 872.3 261.8 872 263.3 870.9L285 843.2 290.9 859.7 280.4 873C279 874 279.3 876 281 877.6 282.2 878.4 284.2 878.1 285.6 877L293.7 866.6 302.2 887.3C302.5 889.3 304.4 889.6 306.4 889.3 307.1 888.7 308 887.6 308.1 886.9 308.2 886.3 308.3 885.7 307.7 885L299.9 864.3 313.2 866.4C315.1 866.7 316.7 865 316.8 863.7L316.8 863.7C317.1 861.8 316.1 860.3 314.2 860L297.1 857.4 291.2 840.9 325.4 846.2C327.3 846.5 328.7 845.5 329 843.6S328.3 840.2 326.4 839.9L288.4 834 278.7 809.2 307.9 817 293.9 790.2 320.5 794.3 334.4 830.1C335.3 832.2 337.2 832.5 338.6 832.1 339.9 831.7 340.9 829.9 340.5 827.9L328.1 795.5 344.5 798 351.1 814C351.5 816 353.2 816.9 355.3 815.9 356.7 815.5 357.6 813.7 357.3 811.7L352.1 799.2 374.2 802.6C376.1 802.9 377.6 801.9 377.9 800S377.1 796.6 375.2 796.3L353.1 792.9 361.2 782.5C361.9 782 362 781.3 362.1 780.7 362.3 779.4 361.8 778.7 361.2 778 359.5 776.4 357.5 776.7 356.6 778.5L345.5 791.7 328.4 789.1 350.7 762.1C350.8 761.5 350.9 760.8 351 760.2 351.2 758.9 350.7 758.2 350.2 757.5 348.5 755.9 346.5 756.2 345.5 758L321.5 788 294.9 783.9 316.3 762.6 286.1 761.1 302.9 740.4 340.9 746.3C342.8 746.6 344.3 744.9 344.5 743.6 344.8 741.7 343.7 740.3 341.9 740L307.7 734.7 318.3 720.8 335.3 723.4C337.2 723.7 338.7 722.7 339 720.8S338.2 717.4 336.3 717.1L323 715.1 336.7 697.7C337.5 697.2 337.6 696.6 337.7 695.9 337.8 695.3 337.3 694 336.2 693.1 335 692.3 333.1 692 332.2 693.8ZM301.9 768.1L284.3 785.5 295.8 807.3 271.5 801 258.6 821.6 251.9 797.9 227.5 796.7 245.1 779.4 233.6 757.5 257.2 763.8 270.8 743.2 276.8 766.8 301.9 768.1Z" fill="rgba(51, 143, 194, 0.58)"></path><path d="M1020.2 1170.2L993.7 1170.2 977.1 1153.3 1000 1147.3 1022.8 1160.9C1022.8 1160.9 1023.1 1161 1023.1 1161 1023.7 1161.2 1024.5 1160.7 1025 1160.2 1025.5 1159.4 1025.2 1158.3 1024.2 1158L1004.3 1146.2 1015.4 1143.3 1024.2 1148.4C1024.2 1148.4 1024.6 1148.5 1024.6 1148.5 1025.2 1148.6 1026 1148.2 1026.4 1147.7 1027 1146.8 1026.6 1145.7 1025.7 1145.5L1019.7 1141.8 1027.9 1139.8C1028.6 1139.6 1029.3 1138.5 1029.2 1137.8 1029.1 1136.8 1027.9 1136.4 1027.2 1136.6L1019 1138.6 1022.6 1132.7C1023.2 1131.8 1022.8 1130.7 1021.9 1130.5 1021 1129.9 1019.9 1130.3 1019.7 1131.2L1014.6 1140.1 1003.6 1142.7 1015.4 1122.7C1016 1121.9 1015.6 1120.8 1014.7 1120.5 1013.8 1120 1012.7 1120.3 1012.5 1121.2L998.9 1144 976 1150 982.4 1126.9 1005.6 1113.7C1006.4 1113.3 1006.6 1112.3 1006.2 1111.5 1005.7 1110.8 1004.8 1110.5 1004 1110.9L983.6 1122.6 986.6 1111.5 995.3 1106.5C996.1 1106.1 996.3 1105.2 995.9 1104.4 995.4 1103.6 994.5 1103.3 993.7 1103.8L987.8 1107.1 990.2 1098.5C990.8 1097.7 990 1096.8 989.1 1096.5 988.2 1096.3 987.4 1096.7 987.1 1097.7L984.9 1105.7 981.5 1099.8C981.1 1099 980.2 1098.7 979.4 1099.2S978.3 1100.5 978.8 1101.3L983.7 1110 980.6 1121.1 969 1100.6C968.6 1099.8 967.7 1099.6 966.9 1100 966.1 1100.5 965.8 1101.4 966.3 1102.2L979.5 1125.4 973.2 1148.2 956.6 1131.4 956.7 1105.5C956.7 1104.5 955.8 1104 954.9 1103.7 953.9 1103.8 953.3 1104.6 953.1 1105.5L953 1128.7 945 1120.6 945.1 1110.3C945.1 1109.3 944.2 1108.7 943.3 1108.5 942.3 1108.5 941.7 1109.4 941.6 1110L941.6 1117 935.6 1111C935.1 1110.5 933.9 1110.2 933.3 1111 932.7 1111.9 932.5 1112.8 933.3 1113.4L939.3 1119.3 932.3 1119.4C931.3 1119.4 930.8 1120.3 930.6 1120.9 930.7 1121.6 931.2 1122.4 931.8 1122.6 931.8 1122.6 932.1 1122.6 932.1 1122.6L942.3 1122.8 950.4 1131 927.2 1130.9C926.1 1131 925.6 1131.8 925.4 1132.4 925.6 1133.1 926 1133.9 926.6 1134.1 926.6 1134.1 926.9 1134.2 926.9 1134.2L953.5 1134.2 970.1 1151 947.2 1157 924.4 1143.4C923.5 1142.9 922.4 1143.2 922.2 1144.1 921.6 1145 922 1146.1 922.9 1146.3L942.9 1158.2 931.8 1161.1 922.9 1156C922.1 1155.4 921 1155.8 920.7 1156.7 920.2 1157.5 920.5 1158.6 921.4 1158.9L927.4 1162.5 919.2 1164.6C918.5 1164.7 917.9 1165.9 918 1166.6 918.1 1167.3 918.7 1167.7 919.3 1167.9 919.6 1168 919.9 1168.1 920.3 1167.9L928.5 1165.8 924.9 1171.8C924.3 1172.6 924.7 1173.7 925.6 1174 925.6 1174 925.9 1174 925.9 1174 926.5 1174.2 927.3 1173.8 927.8 1173.2L932.9 1164.4 944 1161.4 932.2 1181.4C931.6 1182.3 932 1183.4 932.9 1183.6 932.9 1183.6 933.2 1183.7 933.2 1183.7 933.8 1183.9 934.6 1183.4 935.1 1182.9L948.7 1160.1 971.6 1154.1 965.3 1176.9 942 1190.1C941.3 1190.6 941 1191.5 941.4 1192.3 941.9 1193.1 942.8 1193.3 943.6 1192.9L964 1181.6 960.9 1192.7 952.3 1197.6C951.5 1198 951.2 1199 951.7 1199.7S953 1200.8 953.8 1200.3L959.7 1197 957.5 1205C957.3 1205.9 957.7 1206.7 958.6 1207 959.6 1207.2 960.4 1206.8 960.6 1205.9L962.8 1197.8 966.2 1203.7C966.4 1204.1 966.6 1204.5 967.2 1204.7S968.2 1204.6 968.6 1204.4C969.4 1204 969.7 1203 969.2 1202.3L964.3 1193.6 967.4 1182.5 979 1203C979.2 1203.4 979.4 1203.7 980.1 1203.9 980.4 1204 981.1 1203.9 981.5 1203.6 982.3 1203.2 982.5 1202.3 982.1 1201.5L968.9 1178.3 975.2 1155.4 991.8 1172.3 991.8 1198.8C991.9 1199.5 992.3 1200.3 993 1200.5 993 1200.5 993.3 1200.6 993.3 1200.6 994.3 1200.5 994.8 1199.7 995 1199.1L995.1 1175.9 1003.1 1184.1 1003 1194.3C1003.1 1195 1003.5 1195.8 1004.2 1196 1004.2 1196 1004.5 1196 1004.5 1196 1005.5 1196 1006 1195.1 1006.2 1194.5L1006.2 1187.5 1012.1 1193.5C1012.4 1193.6 1012.7 1194 1013 1194.1 1013.6 1194.2 1014.3 1194.1 1014.8 1193.6 1015.3 1192.7 1015.6 1191.8 1014.8 1191.2L1008.8 1185.3 1015.8 1185.2C1016.8 1185.2 1017.3 1184.3 1017.5 1183.7 1017.4 1182.7 1016.6 1182.1 1016 1182L1005.7 1181.8 997.7 1173.6 1020.9 1173.7C1021.9 1173.6 1022.5 1172.8 1022.7 1172.2 1022 1171 1021.2 1170.1 1020.2 1170.2Z" fill="rgba(51, 143, 194, 0.58)"></path><path d="M456.3 1040.2L485.5 1055.8 488.4 1064.4 474.5 1079.4 465.4 1077.5 447.9 1049.3C447.6 1049 447.6 1049 447.3 1048.7 446.7 1048.2 445.8 1047.9 444.7 1048.5 443.9 1049.4 443.7 1050.3 444.3 1051.4L459.6 1076 445.7 1072.9 438.7 1062.1C438.7 1062.1 438.4 1061.8 438.4 1061.8 437.9 1061.3 437 1061 435.9 1061.6 435.1 1061.9 434.8 1063.4 435.4 1064.5L439.7 1071.7 429.4 1069.2C428.5 1069 427.4 1069.6 426.9 1070.7S427.5 1073 428.7 1073.5L438.7 1075.7 431.8 1080.2C430.7 1080.8 430.4 1082.2 431 1083.3 431.6 1083.9 432.8 1084.4 433.9 1083.8L444.7 1076.9 459 1080.3 434.3 1095.6C433.2 1096.2 433 1097.7 433.3 1098.5 434.2 1099.3 435.4 1099.8 436.5 1099.2L464.4 1081.5 473.8 1083.7 479.6 1102.7 473.1 1109.7 440 1111.3C438.9 1111.3 438.1 1112.2 438.1 1113.3S439 1115.3 440.2 1115.2L469.3 1113.9 459.2 1124.7 446.8 1125.2C445.6 1125.2 444.8 1126.1 444.6 1127.5S445.5 1129.5 446.7 1129.4L455.4 1128.8 448.1 1136.7C447.2 1137.6 447.6 1139 448.5 1139.8 449.3 1140.6 450.5 1140.6 451.3 1139.7L458.6 1131.8 459 1140.3C458.7 1141.7 459.6 1142.5 461 1142.2 462.1 1142.1 463 1141.3 462.9 1140.1L462.4 1127.7 472.5 1116.8 473.3 1146C473.4 1147.1 474.5 1148.2 475.7 1148.1S477.6 1147.2 477.6 1146.1L476.3 1112.7 482.8 1105.7 502.5 1110.3 505.1 1119.3 489.5 1148.5C489 1149.6 489.6 1150.7 490.5 1151.5 491.7 1152.1 492.8 1151.5 493.6 1150.6L507.1 1124.9 511.3 1138.6 505.2 1149.9C504.6 1151 505.3 1152.1 506.1 1152.9 507 1153.2 508.4 1152.9 508.9 1151.7L512.9 1144.5 516.1 1154.5C516.4 1155.4 517.6 1155.9 518.7 1155.9 519.8 1155.3 520.3 1154.1 520 1153.3L516.8 1143.2 524.6 1147.1C525.5 1147.4 526.9 1147.1 527.1 1146.2 527.9 1145.3 527.6 1144.5 526.7 1143.7 526.7 1143.7 526.4 1143.4 526.4 1143.4L515.2 1137.3 511 1123.6 536.7 1137.1C537.8 1137.6 539 1137.5 539.5 1136.4 540 1135.2 539.7 1134.4 539.1 1133.9 538.8 1133.6 538.8 1133.6 538.8 1133.6L509.1 1118 506.5 1109.1 520.3 1094.1 529.2 1096.3 547.2 1124.5C547.5 1125.3 549 1125.6 549.8 1125.2 550.9 1124.6 551.1 1123.2 550.5 1122.1L535.2 1097.5 549.2 1100.6 556.1 1111.4C556.7 1112.5 557.8 1113.1 558.7 1112.2 559.8 1111.6 560 1110.1 559.7 1109.3L554.9 1102.1 565.2 1104.6C566.3 1104.5 567.4 1103.9 567.9 1102.8 567.9 1102.2 567.6 1101.4 567 1100.8 566.7 1100.6 566.7 1100.6 566.1 1100.6L555.9 1098.1 563 1093.3C564.1 1092.7 564.1 1091.6 563.8 1090.8 563.5 1090.5 563.5 1090.5 563.2 1090.2 562.6 1089.7 561.8 1089.4 560.9 1089.7L550.1 1096.6 536.2 1093.5 560.8 1078.1C561.6 1077.3 562.1 1076.1 561.2 1075.3 561.2 1074.7 561.2 1074.7 560.9 1074.4 560.3 1073.9 559.2 1073.9 558.4 1074.3L530.2 1092.3 521.3 1090.1 515.2 1070.8 521.5 1064 554.8 1062.8C555.9 1062.7 557 1061.6 557 1060.4S555.8 1058.2 554.6 1058.3L525.5 1059.6 535.3 1049.1 548 1048.3C549.2 1048.3 550 1047.4 549.9 1046.3 549.9 1045.1 549 1044.3 547.9 1044.4L539.4 1044.7 546.8 1036.8C547.3 1036.2 547.5 1034.8 546.6 1033.9 545.8 1033.1 544.1 1033.2 543.5 1033.8L536.2 1041.7 535.9 1033.2C535.8 1032.7 535.8 1032.1 535.5 1031.8 534.9 1031.3 534.4 1031.3 533.8 1031.3 532.7 1031.4 531.9 1032.2 531.9 1033.4L532.1 1046.1 522.3 1056.7 521.5 1027.5C521.5 1027 521.2 1026.7 520.6 1026.2 520.3 1025.9 520 1025.6 519.4 1025.6 518.3 1025.7 517.2 1026.8 517.3 1028L518.2 1061.1 512 1067.8 492.6 1063.4 489.4 1054.5 505.3 1025C505.5 1024.2 505.5 1023 504.9 1022.5 504.6 1022.2 504.6 1022.2 504.3 1022.5 503.4 1021.7 502 1022 501.5 1023.2L488.1 1048.9 483.6 1034.9 489.7 1023.6C489.9 1022.8 489.6 1021.9 489 1021.4 489 1021.4 488.7 1021.1 488.7 1021.1 487.8 1020.3 486.4 1020.6 485.9 1021.8L482 1029.6 478.7 1019.5C478.7 1019 478.4 1018.7 478.1 1018.4 477.5 1017.9 476.7 1017.6 476.4 1017.9 475 1018.2 474.5 1019.4 474.5 1020.5L477.7 1030.6 470.5 1026.6C469.4 1026.1 468 1026.4 467.4 1027.6 467.2 1028.5 467.5 1029.9 468.4 1030.1L479.7 1036.2 483.8 1049.9 458.1 1036.4C457 1035.9 455.9 1036.5 455.1 1037.4 454.8 1038.3 455.2 1039.7 456.3 1040.2ZM479.3 1080.6L490 1069.2 491.6 1067.4 493.9 1067.9 508.7 1071.3 511.3 1072.1 511.9 1074.3 516.5 1088.9 517.1 1091.1 515.5 1092.9 504.9 1104.3 503.2 1106.1 500.9 1105.6 486.1 1102.2 483.8 1101.7 482.9 1099.2 478.4 1084.6 477.7 1082.4 479.3 1080.6Z" fill="rgba(51, 143, 194, 0.58)"></path><path d="M311.9 239.7L315.3 261.9 302.5 257.5C301.2 256.9 299.3 257.6 298.2 259.3 298.1 261.1 298.8 263 300.6 263.2L316.4 269.3 319.7 286.4 286.8 273.7C285 273.5 283.1 274.2 282.6 275.6 281.9 277.8 282.6 279.6 284.4 279.8L320.8 293.8 325.1 320.1 297.8 306.1 306.3 335.6 281.3 326.3 274.5 288C275 287.6 274.6 287.1 274.2 286.6 273.4 285.6 272.1 285 270.7 285.3 269.3 285.6 268.2 287.3 268.1 289.2L274.3 323.8 258.1 317.3 255.1 300.6C255.2 299.7 254.8 299.2 254.4 298.7 254 298.2 252.7 297.7 251.3 298 249.9 298.3 248.8 300 249.1 301.4L251 314.8 229.9 307.3C228.2 306.2 226.7 307.4 225.7 309.1 225.1 310.5 225.8 312.3 228 313L248.6 320.9 238.2 329.5C236.8 330.7 237 333 237.8 334 239 335.4 240.8 335.6 242.3 334.4L255.7 323.4 271.8 330 245.2 352C243.7 353.2 243.5 355 244.7 356.5 245.5 357.4 247.7 358.1 249.2 356.9L278.9 332.5 303.9 341.7 278.6 358.4 307.9 365.8 287.2 382.8 251.2 369.4C249 368.7 247.5 369.9 246.9 371.2 246.3 372.5 247.1 374.4 248.8 375.5L281.7 387.3 268.4 398.3 252.1 392.6C250.4 391.6 248.5 392.3 247.9 394.5 247.3 395.8 248 397.7 250.2 398.4L262.5 403.2 245.2 417.4C243.7 418.6 243.5 420.4 244.7 421.9S247.8 423.6 249.3 422.4L266.5 408.1 268.9 421.1C269.2 423.4 270.9 424.5 272.3 424.1 274.6 423.9 275.6 422.2 274.9 420.3L272.5 403.2 285.8 392.3 291.1 426.9C291.8 428.8 293.5 429.8 294.9 429.5 297.2 429.3 298.3 427.6 297.6 425.7L291.2 387.8 312 370.7 313.6 400.9 334.8 379.3 339.1 405.6 309.4 430C308 431.2 308.2 433.5 309 434.5 310.2 436 312 436.2 313.5 435L340.7 412.6 343.5 430.1 330.2 441.1C328.7 442.3 328.5 444.1 329.8 445.6 330.6 446.6 332.8 447.3 334.3 446.1L344.6 437.5 348.4 459.2C348.7 461.5 350.4 462.6 352.3 461.9 353.7 461.6 355.1 460.4 354.4 458.5L351.1 436.3 363.9 440.7C365.2 441.3 367.1 440.6 367.6 439.3 368.2 438 367.9 436.6 367.5 436.1 367.1 435.6 366.7 435.1 365.8 435L350 428.9 346.7 411.8 379.5 424.5C381.3 424.7 383.2 424 383.8 422.7 384.4 421.4 384.1 420 383.3 419 382.8 418.5 382.8 418.5 381.9 418.4L345.6 404.4 341.3 378.1 368.6 392.1 360.1 362.6 385.1 371.9 391.8 410.3C392.1 411.6 393.4 413.1 395.7 412.9 397.1 412.6 398.1 410.9 398.3 409.1L392.1 374.4 408.3 380.9 411.2 397.6C411.1 399.4 412.8 400.5 415.1 400.2 416.5 399.9 417.5 398.2 417.7 396.4L415.3 383.4 436.4 390.9C438.2 392 439.6 390.8 440.7 389.1 440.8 388.2 440.5 386.8 440.1 386.3 439.7 385.8 439.3 385.3 438.4 385.2L417.8 377.3 428.1 368.8C429.6 367.5 429.4 365.2 428.6 364.3L428.6 364.3C427.3 362.8 425.5 362.6 424.1 363.8L410.7 374.8 394.5 368.2 421.2 346.3C422.7 345 422.9 343.2 421.6 341.8S418.6 340.1 417.1 341.3L387.5 365.7 362.5 356.5 387.7 339.8 358.4 332.5 379.2 315.4 415.2 328.9C417.4 329.5 418.9 328.3 419.4 327 420 325.7 419.3 323.8 417.6 322.7L385.1 310.5 398 299.9 414.2 305.6C416 306.7 417.8 305.9 418.5 303.7 419.1 302.4 418.4 300.5 416.6 299.4L403.9 295 421.2 280.8C422.7 279.6 422.8 277.8 421.6 276.3S418.6 274.6 417.1 275.8L399.8 290.1 397.4 277.1C397.5 276.2 397.1 275.7 396.7 275.2 395.9 274.2 395 274.2 394.1 274.1 391.8 274.3 390.7 276 391.5 277.9L393.9 295 380.6 306 375.3 271.3C374.9 270.8 374.5 270.4 374 269.9 373.2 268.9 372.3 268.8 371.4 268.7 369.1 268.9 368.1 270.6 368.8 272.5L375.1 310.4 354.4 327.5 352.7 297.3 331.6 318.9 327.3 292.6 356.9 268.2C358.4 267 358.2 264.7 357.4 263.7 356.1 262.2 354.3 262 352.9 263.3L326.2 285.2 322.8 268.1 336.2 257.1C337.7 255.9 337.8 254.1 336.6 252.6S333.6 250.9 332.1 252.2L321.7 260.7 317.9 239C318 238.1 317.6 237.6 317.2 237.1 316.8 236.6 315.5 236 314.1 236.3 312.7 236.6 311.2 237.9 311.9 239.7ZM347.3 311.8L348.5 336.5 372.5 342.5 351.6 356.3 358.4 379.7 336.3 369 319.1 386.4 317.9 361.7 293.9 355.8 314.3 342.3 308 318.5 329.6 329.7 347.3 311.8Z" fill="rgba(51, 143, 194, 0.58)"></path><path d="M1177.2 179L1173.9 198.8 1163.2 190.6C1162.1 189.7 1160.1 189.8 1158.5 191.1 1157.8 192.7 1157.9 194.8 1159 195.7L1172.9 206.7 1169.8 225.1 1141.7 202.5C1139.8 201.2 1137.8 201.3 1137.1 203 1135.5 204.2 1135.6 206.3 1137.5 207.6L1168.6 232.5 1166.2 249.3 1129.9 263.5 1118.1 254.4 1125 212.5C1124.8 211.9 1124.5 211.3 1124.3 210.7 1124.1 210.1 1123 209.2 1122.2 208.8 1119.9 208.3 1118.4 209.6 1118.5 211.6L1112.2 249.9 1098 238.2 1100.6 218.6C1101.2 218.4 1101 217.8 1100.7 217.2 1100.3 216 1099.2 215.1 1097.8 214.9 1096.3 214.8 1094.8 216.1 1094.1 217.8L1092.1 233.7 1074.1 219.4C1073 218.5 1071 218.6 1069.5 219.9 1068.7 221.5 1068.8 223.5 1069.9 224.5L1086.8 237.8 1074.3 242.7C1072.5 243.4 1072 245.7 1072.5 246.9 1073.2 248.6 1075.1 250 1076.9 249.3L1093 243 1107.1 254.6 1073.8 267.7C1072 268.4 1071.3 270 1072 271.8 1072.7 273.6 1074.3 274.3 1076.1 273.6L1113.1 259.1 1125.7 268.6 1119.6 307.4 1105.9 312.8 1074 287.5C1072.7 286 1070.1 286.3 1069.4 288 1067.8 289.3 1068.5 291 1069.8 292.6L1098.8 315.6 1081.5 322.4 1067.3 310.8C1066.3 309.8 1063.6 310.2 1062.7 311.2S1062.1 314.9 1063.4 316.4L1074.4 325.2 1053.5 333.4C1051.7 334.1 1051.2 336.3 1051.9 338.1 1052.4 339.3 1054.3 340.6 1056.1 339.9L1076.9 331.7 1075.1 346.2C1074.9 347.7 1075.6 349.4 1077.9 349.9 1079.3 350.1 1081.5 348.5 1081.6 347.1L1084.1 328.9 1101.4 322.2 1095.8 358.7C1095.9 360.8 1096.6 362.5 1098.8 363 1100.3 363.2 1102.4 361.6 1102.5 360.2L1108.5 319.4 1122.2 314 1153.1 338.3 1150.2 353.9 1113.3 368.4C1111.5 369.1 1110.8 370.7 1111.5 372.5 1112.2 374.3 1114.1 375.6 1115.9 374.9L1149.2 361.8 1146.7 380 1130.6 386.3C1128.9 387 1128.1 388.7 1128.8 390.4 1129.5 392.2 1131.2 392.9 1133 392.2L1145.5 387.3 1142.2 408.6C1142 410 1143.6 412.2 1145 412.3 1147 412.2 1148.8 411.5 1148.7 409.5L1152.4 387.4 1164.5 397.1C1166.1 397.8 1168.1 397.7 1169.1 396.6 1170 395.6 1170.2 394.2 1169.7 393 1169.7 393 1169.5 392.4 1168.6 392L1153.4 379.4 1155.9 361.3 1186.5 385C1187.8 386.5 1189.8 386.4 1191.2 384.5 1191.5 383.7 1191.9 382.9 1191.4 381.7 1191.2 381.1 1190.9 380.5 1190.7 379.9L1157.1 353.9 1159.6 339.2 1195.9 324.9 1209.1 335.6 1203.2 375C1202.7 377.3 1204 378.8 1206 378.7 1207.7 379.4 1209.3 378.1 1209.8 375.9L1215 340.1 1229.8 351.5 1227 369.1C1226.9 370.5 1228.2 372.1 1229.9 372.8 1231.9 372.7 1233.7 372 1233.6 370L1235.9 356.7 1251.7 369C1253 370.6 1254.8 369.9 1256.4 368.6 1256.7 367.7 1256.9 366.3 1256.4 365.1 1256.4 365.1 1256.2 364.5 1255.9 363.9L1239 350.6 1253.9 344.8C1255.1 344.3 1256.4 342.4 1255.7 340.6 1255 338.8 1252.8 338.4 1251.6 338.8L1233.1 346.1 1218.3 334.7 1254.7 320.4C1256.5 319.7 1257 317.5 1256.3 315.7S1253.9 313.2 1252.1 313.9L1212.2 329.5 1200.1 319.8 1206.2 281 1221.7 274.9 1253.9 300.8C1255.5 301.5 1257.5 301.4 1259.1 300.1 1259.5 299.3 1259.6 297.9 1259.1 296.7 1258.9 296.1 1258.6 295.5 1257.8 295.1L1228.8 272.1 1246.1 265.3 1260.9 276.7C1262 277.7 1264 277.6 1265.5 276.3 1266.3 274.6 1266.2 272.6 1265.1 271.6L1253.3 262.5 1272.3 255.1C1273.5 254.6 1274.6 252.1 1274.1 250.9 1273.4 249.1 1271 248 1269.8 248.5L1250.7 256 1253.4 241.9C1253.2 241.3 1252.9 240.7 1252.7 240.1 1252.2 238.9 1251.2 237.9 1250.3 237.6 1248.3 237.7 1246.8 239 1246 240.6L1243.5 258.8 1226.3 265.6 1231.9 229C1232.3 226.7 1231.1 225.2 1229.6 225.1 1227.4 224.6 1225.8 225.9 1225.1 227.5L1219.1 268.4 1203.6 274.5 1172.8 250.1 1175 234.8 1214.9 219.1C1216.7 218.4 1217.4 216.8 1216.7 215 1216 213.2 1214.4 212.5 1212.6 213.2L1176.2 227.4 1179.3 209 1197.8 201.8C1199 201.3 1200.1 198.8 1199.4 197.1 1198.7 195.3 1196.4 194.8 1195.2 195.2L1180.3 201.1 1183.7 179.8C1183.5 179.2 1183.5 179.2 1183.2 178.6 1182.8 177.5 1181.7 176.5 1180.9 176.1 1178.8 176.2 1177.3 177.5 1177.2 179ZM1196.5 277.3L1199.7 280.1 1199.1 283.8 1194.2 315.3 1193.6 319 1190 320.4 1160.8 331.8 1157.3 333.2 1154.3 330.9 1129.4 311.2 1126.4 308.9 1126.8 304.6 1131.9 273.7 1132.2 269.5 1135.8 268.1 1165 256.6 1168.6 255.2 1171.8 258.1 1196.5 277.3Z" fill="rgba(51, 143, 194, 0.58)"></path><path d="M1105.9 509.9L1129 522.8 1131.2 529.7 1119.9 541.5 1112.7 539.9 1099 517.1C1098.8 516.9 1098.8 516.9 1098.6 516.6 1098.1 516.2 1097.4 516 1096.5 516.5 1095.9 517.2 1095.7 517.8 1096.1 518.7L1108.1 538.6 1097 535.9 1091.6 527.2C1091.6 527.2 1091.3 527 1091.3 527 1090.9 526.5 1090.2 526.3 1089.3 526.8 1088.6 527 1088.4 528.2 1088.9 529.1L1092.2 534.9 1084 532.8C1083.3 532.6 1082.4 533.1 1082 534S1082.5 535.8 1083.4 536.2L1091.3 538.1 1085.8 541.6C1084.9 542.1 1084.7 543.2 1085.1 544.1 1085.6 544.5 1086.5 545 1087.4 544.5L1096.1 539.1 1107.5 542 1087.6 554C1086.7 554.5 1086.5 555.6 1086.8 556.3 1087.4 556.9 1088.4 557.4 1089.3 556.9L1111.8 543.1 1119.3 544.9 1123.7 560.2 1118.4 565.8 1092 566.6C1091 566.6 1090.4 567.3 1090.4 568.2S1091.1 569.8 1092 569.7L1115.3 569 1107.1 577.6 1097.2 577.8C1096.3 577.8 1095.6 578.5 1095.4 579.6S1096.1 581.2 1097 581.2L1104 580.8 1098.1 587C1097.4 587.7 1097.6 588.9 1098.3 589.5 1099 590.2 1099.9 590.2 1100.6 589.5L1106.6 583.2 1106.7 590C1106.5 591.2 1107.2 591.8 1108.3 591.6 1109.2 591.6 1109.9 590.9 1109.9 590L1109.7 580 1117.9 571.5 1118.1 594.8C1118.2 595.7 1119.1 596.5 1120 596.5S1121.6 595.8 1121.5 594.9L1121 568.2 1126.3 562.7 1142 566.6 1143.9 573.8 1131.1 597C1130.6 597.9 1131.1 598.8 1131.8 599.4 1132.7 599.9 1133.6 599.4 1134.3 598.7L1145.4 578.3 1148.6 589.4 1143.6 598.3C1143.1 599.2 1143.6 600.1 1144.3 600.8 1145 601 1146.1 600.7 1146.5 599.8L1149.8 594.1 1152.2 602.2C1152.5 602.8 1153.4 603.3 1154.3 603.3 1155.2 602.8 1155.6 601.9 1155.4 601.2L1153 593.1 1159.1 596.4C1159.8 596.6 1160.9 596.3 1161.2 595.6 1161.8 595 1161.6 594.3 1160.9 593.6 1160.9 593.6 1160.7 593.4 1160.7 593.4L1151.7 588.4 1148.5 577.4 1168.9 588.5C1169.8 588.9 1170.7 588.9 1171.2 588 1171.6 587 1171.4 586.4 1170.9 585.9 1170.7 585.7 1170.7 585.7 1170.7 585.7L1147.1 572.9 1145.1 565.7 1156.4 553.9 1163.5 555.8 1177.5 578.5C1177.8 579.2 1178.9 579.4 1179.6 579.2 1180.5 578.7 1180.7 577.6 1180.2 576.7L1168.2 556.8 1179.4 559.5 1184.8 568.2C1185.3 569.1 1186.2 569.5 1186.8 568.8 1187.7 568.4 1187.9 567.2 1187.7 566.6L1183.9 560.8 1192.1 562.8C1193 562.8 1193.9 562.3 1194.4 561.4 1194.4 561 1194.1 560.3 1193.7 559.9 1193.4 559.6 1193.4 559.6 1193 559.7L1184.8 557.6 1190.6 553.8C1191.5 553.3 1191.5 552.4 1191.2 551.8 1191 551.5 1191 551.5 1190.8 551.3 1190.3 550.9 1189.6 550.7 1188.9 550.9L1180.2 556.3 1169.1 553.6 1189 541.6C1189.6 540.9 1190.1 540 1189.4 539.4 1189.4 538.9 1189.4 538.9 1189.1 538.7 1188.7 538.2 1187.8 538.3 1187.1 538.5L1164.3 552.6 1157.2 550.7 1152.6 535.2 1157.7 529.9 1184.4 529.3C1185.3 529.3 1186.2 528.3 1186.2 527.4S1185.2 525.6 1184.3 525.7L1161 526.4 1169 518.1 1179.2 517.6C1180.1 517.6 1180.7 516.9 1180.7 516 1180.7 515.1 1180 514.4 1179.1 514.5L1172.3 514.6 1178.3 508.4C1178.7 507.9 1178.9 506.8 1178.2 506.1 1177.6 505.4 1176.2 505.5 1175.8 505.9L1169.8 512.2 1169.6 505.4C1169.6 504.9 1169.6 504.5 1169.4 504.3 1168.9 503.8 1168.5 503.8 1168 503.8 1167.1 503.9 1166.4 504.5 1166.5 505.5L1166.5 515.6 1158.5 524 1158.2 500.7C1158.2 500.2 1158 500 1157.5 499.5 1157.3 499.3 1157 499.1 1156.6 499.1 1155.7 499.1 1154.8 500 1154.8 500.9L1155.2 527.4 1150.1 532.7 1134.6 529 1132.2 521.8 1145.3 498.4C1145.5 497.8 1145.5 496.9 1145 496.4 1144.8 496.2 1144.8 496.2 1144.5 496.4 1143.8 495.8 1142.7 496 1142.3 496.9L1131.2 517.3 1127.8 506.1 1132.8 497.1C1133 496.4 1132.8 495.8 1132.3 495.3 1132.3 495.3 1132.1 495.1 1132.1 495.1 1131.4 494.4 1130.2 494.7 1129.8 495.6L1126.5 501.8 1124.1 493.7C1124.1 493.2 1123.9 493 1123.6 492.8 1123.2 492.3 1122.5 492.1 1122.3 492.4 1121.1 492.6 1120.7 493.5 1120.7 494.4L1123.2 502.5 1117.4 499.3C1116.5 498.8 1115.4 499.1 1115 500 1114.8 500.7 1115 501.8 1115.7 502L1124.6 507 1127.8 518.1 1107.4 506.9C1106.5 506.5 1105.6 507 1104.9 507.7 1104.7 508.4 1105 509.5 1105.9 509.9ZM1123.8 542.6L1132.4 533.6 1133.8 532.2 1135.6 532.6 1147.4 535.5 1149.5 536.1 1150 537.9 1153.4 549.6 1153.9 551.4 1152.5 552.8 1143.9 561.8 1142.6 563.2 1140.8 562.8 1128.9 559.9 1127.1 559.5 1126.4 557.5 1123 545.8 1122.5 544 1123.8 542.6Z" fill="rgba(51, 143, 194, 0.58)"></path><path d="M560.5 337.1L535.2 329.4 531.6 323 540.2 309.1 547.6 309.2 565.7 328.7C566 328.9 566 328.9 566.2 329 566.8 329.4 567.5 329.4 568.3 328.8 568.8 328 568.8 327.2 568.2 326.5L552.3 309.5 563.8 309.8 570.9 317.2C570.9 317.2 571.2 317.4 571.2 317.4 571.7 317.7 572.4 317.8 573.2 317.1 573.8 316.8 573.8 315.6 573.1 314.8L568.7 309.8 577.1 310.2C577.8 310.2 578.6 309.6 578.9 308.6S578 307 577 306.7L568.8 306.6 573.6 302C574.3 301.3 574.3 300.1 573.7 299.4 573.1 299 572.1 298.8 571.4 299.5L564 306.5 552.2 306.1 569.2 290.2C570 289.6 569.9 288.4 569.5 287.8 568.7 287.3 567.7 287.1 567 287.7L547.8 305.9 540 305.7 532.5 291.6 536.6 285.1 562.3 278.8C563.2 278.6 563.7 277.8 563.5 276.9S562.5 275.5 561.6 275.7L538.9 281.3 545.2 271.2 554.9 268.9C555.7 268.7 556.2 267.9 556.2 266.8S555.2 265.4 554.3 265.6L547.5 267.4 552.1 260.1C552.6 259.2 552.1 258.2 551.3 257.7 550.5 257.2 549.6 257.4 549.1 258.2L544.5 265.6 543 258.9C542.9 257.8 542.1 257.3 541.1 257.8 540.2 258 539.7 258.8 539.9 259.7L542.2 269.4 536 279.4 530.8 256.7C530.6 255.8 529.5 255.1 528.6 255.3S527.3 256.4 527.5 257.3L533.6 283.2 529.6 289.8 513.4 289.2 509.9 282.5 517.7 257.2C517.9 256.2 517.3 255.5 516.5 255 515.5 254.7 514.7 255.4 514.2 256.2L507.6 278.4 502.2 268.3 505.2 258.5C505.5 257.6 504.8 256.8 504 256.3 503.3 256.2 502.2 256.7 502 257.7L500 264 495.9 256.6C495.5 255.9 494.6 255.7 493.7 255.9 492.9 256.6 492.7 257.6 493 258.2L497.1 265.6 490.4 263.7C489.7 263.6 488.6 264.1 488.6 264.8 488.1 265.6 488.4 266.2 489.3 266.7 489.3 266.7 489.5 266.9 489.5 266.9L499.3 269.9 504.7 280.1 482.5 273.4C481.5 273.2 480.6 273.4 480.4 274.4 480.1 275.4 480.5 276 481.1 276.3 481.3 276.5 481.3 276.5 481.3 276.5L507.1 284.1 510.5 290.8 501.9 304.7 494.6 304.3 476.1 284.9C475.7 284.3 474.6 284.4 474 284.7 473.2 285.4 473.2 286.5 473.9 287.3L489.7 304.3 478.3 304 471.2 296.6C470.5 295.8 469.5 295.5 469 296.4 468.3 297 468.3 298.2 468.7 298.8L473.5 303.7 465.1 303.3C464.2 303.5 463.4 304.2 463.2 305.2 463.3 305.6 463.7 306.2 464.2 306.6 464.5 306.7 464.5 306.7 464.9 306.6L473.4 307 468.5 311.8C467.7 312.5 467.9 313.4 468.3 314 468.6 314.1 468.6 314.1 468.8 314.3 469.4 314.6 470.1 314.7 470.7 314.3L478.1 307.2 489.6 307.6 472.6 323.4C472.1 324.2 471.9 325.2 472.7 325.7 472.8 326.2 472.8 326.2 473.1 326.3 473.6 326.7 474.5 326.5 475.1 326.1L494.5 307.6 501.8 307.9 509.5 322.2 505.6 328.4 479.7 334.5C478.8 334.7 478.1 335.8 478.3 336.7S479.6 338.3 480.5 338.1L503.1 332.5 497.1 342.3 487.2 344.9C486.3 345.1 485.8 345.9 486 346.8 486.2 347.6 487.1 348.1 487.9 347.9L494.5 346.4 490 353.7C489.7 354.3 489.7 355.4 490.5 355.9 491.3 356.4 492.7 356.1 493 355.6L497.5 348.2 499.1 354.8C499.2 355.3 499.3 355.7 499.6 355.9 500.1 356.2 500.6 356.1 501 356 501.9 355.8 502.4 355 502.2 354.1L500.1 344.1 506.1 334.4 511.2 357.1C511.3 357.5 511.6 357.7 512.2 358 512.4 358.2 512.7 358.4 513.1 358.3 514 358.1 514.7 357 514.5 356.1L508.6 330.3 512.5 324 528.4 324.4 532.3 331 524.4 356.6C524.3 357.3 524.5 358.1 525.1 358.5 525.3 358.7 525.3 358.7 525.5 358.4 526.3 358.9 527.4 358.4 527.6 357.4L534.2 335.2 539.9 345.5 536.8 355.2C536.8 356 537.2 356.6 537.7 356.9 537.7 356.9 538 357.1 538 357.1 538.8 357.6 539.8 357.1 540.1 356.1L542 349.4 546 356.8C546.1 357.2 546.4 357.4 546.7 357.6 547.2 357.9 547.9 358 548.1 357.7 549.2 357.2 549.4 356.2 549.2 355.4L545.1 347.9 551.4 349.9C552.4 350.2 553.4 349.7 553.7 348.7 553.7 348 553.3 347 552.5 346.9L542.8 343.8 537.4 333.7 559.6 340.3C560.6 340.6 561.4 339.9 561.9 339.1 561.9 338.4 561.5 337.4 560.5 337.1ZM536.2 308.9L529.6 319.5 528.6 321.2 526.7 321.1 514.5 320.7 512.4 320.6 511.5 318.9 505.8 308.2 504.9 306.5 505.9 304.9 512.5 294.3 513.5 292.6 515.4 292.7 527.5 293 529.4 293.1 530.5 294.9 536.3 305.6 537.2 307.3 536.2 308.9Z" fill="rgba(51, 143, 194, 0.58)"></path></g><defs><mask id="SvgjsMask1044"><rect width="1440" height="1200" fill="#ffffff"></rect></mask><filter id="SvgjsFilter1045"><feGaussianBlur stdDeviation="1"></feGaussianBlur></filter></defs></svg>